<?xml version="1.0" encoding="UTF-8"?>
<svg id="Calque_1" data-name="Calque 1" xmlns="http://www.w3.org/2000/svg" version="1.1" viewBox="0 0 143.6 136.1">
  <defs>
    <style>
      .cls-1 {
        fill: #000;
        stroke-width: 0px;
      }
    </style>
  </defs>
  <g id="xysgyc">
    <g>
      <path class="cls-1" d="M59.7,50.2v13.7c5.6,1.1,11.3,2.2,17,3.4,6.5,1.3,7.9,3.1,7.9,9.8,0,7,0,14,0,21,0,2.8-.7,5-4,5.1-3.1,0-4.4-1.8-4.6-4.7-.4-5.1-.9-10.3-1.2-15.4-.1-2.5-.7-3.9-3.6-4.1-4.1-.3-8.2-1-11.3-1.5v29.4h27.6c2.3-8.7,4.8-17.6,7.1-26.5,1.2-4.7,2.4-9.3,3.7-14,2.2-8.4.3-11.8-8-14-.9-.2-1.9-.5-3.7-1,1.2-1.5,2-3.3,2.8-3.3,8,0,16.4-.6,20.7,7.8,3.6-1.6,6.9-3.1,11-4.9v20.3c-2.2-.3-4.1-.6-6-.8.6,8,1.9,9.3,9.4,10.9,7.2,1.5,12.7,5.2,15.6,13.3-10,0-19.4.1-28.8,0-3.2,0-4.7,1-5.6,4.1-1.3,4.8-2.9,9.6-4.8,14.2-.6,1.4-2.6,3.1-4,3.1-27.6.2-55.3.1-82.9.1-5.1,0-6.4-3.6-7-7.6-1.3-8.8,3.7-18.3,11.5-22.7,1.4-.8,2.6-2.5,3.3-4.1,1.8-4.3,5.4-5.2,9.3-5.3,6.3-.2,12.6,0,19.8-.5-7.7-4.6-6.2-11.7-5.9-18.4.3-6.5.7-13,.9-19.5.1-3.6,1.6-6,5-7.2,3.6-1.3,6.5-.5,9,2.4,1.5,1.8,3.2,3.5,4.4,5.5,3.6,6.1,8.7,9.3,16,8.4.7,0,1.5-.2,2,.2,1.1,1,2.9,2.2,2.9,3.3,0,1.4-1.3,3.4-2.6,4.1-1.7.8-3.9.5-5.9.7q-9.6,1.1-16.7-5.1Z"/>
      <path class="cls-1" d="M0,44h15.5c.1,3,.3,5.9.4,9.1h7.4v-8.9h15.9v29H0v-29.2Z"/>
      <path class="cls-1" d="M123.9,136.1c-11.1,0-20-8.9-20.1-20,0-10.6,9.1-19.6,19.8-19.8,10.7-.1,19.9,8.9,19.9,19.6,0,11.2-8.7,20.2-19.7,20.2ZM132.9,116.1c0-4.9-4-9-8.8-9-5,0-9.3,4.3-9.1,9.3.2,5,4.1,9,8.9,9,5.1,0,9-4,9-9.3Z"/>
      <path class="cls-1" d="M73.7,12.5c0,8.3-6,16.7-12,16.7-7.1,0-14-8.1-14-16.2C47.7,5.3,52.6.1,59.9,0c8.2-.1,13.8,4.9,13.8,12.5Z"/>
      <path class="cls-1" d="M15.5,121.3c4.8,0,9.4-1.2,13.9,2.5,1.9,1.6,7.1,1.6,9.1,0,4.5-3.6,9.2-2.8,14-2.7-.7,7.8-8.5,14.4-17.3,14.8-9.7.4-18-5.7-19.7-14.8Z"/>
    </g>
  </g>
</svg>